<svg id="b9db4feb-c270-4fb2-9ff2-23fe84501636" data-name="Layer 1" xmlns="http://www.w3.org/2000/svg" viewBox="0 0 681.089 433.7778"><defs><style>.f43f3fb6-e85f-4b8a-b294-8392ce4c510d{fill:#054a69;}</style></defs><title>trasparente-scritta-blu</title><polygon class="f43f3fb6-e85f-4b8a-b294-8392ce4c510d" points="14.72 349.93 14.72 417.926 44.5 417.926 44.5 432.646 0 432.646 0 349.93 14.72 349.93"/><polygon class="f43f3fb6-e85f-4b8a-b294-8392ce4c510d" points="116.041 349.93 116.041 364.593 88.753 364.593 88.753 378.748 113.55 378.748 113.55 393.411 88.753 393.411 88.753 417.926 118.532 417.926 118.532 432.646 74.033 432.646 74.033 349.93 116.041 349.93"/><path class="f43f3fb6-e85f-4b8a-b294-8392ce4c510d" d="M261.8283,450.2008q-3.7365,10.4745-6.681,19.589h13.475q-3.0015-9.1724-6.794-19.589m29.723,57.748h-14.663l-.284-5.0949q-.339-6.3975-3.623-18.3441h-22.137q-3.2265,11.946-3.566,18.3441l-.227,5.0949h-14.72l.283-5.661q1.02-20.9475,21.91-73.601l1.359-3.397h11.776l1.359,3.34q21.231,52.5975,22.25,73.658Z" transform="translate(-85.4555 -75.3033)"/><polygon class="f43f3fb6-e85f-4b8a-b294-8392ce4c510d" points="278.26 349.93 278.26 364.65 250.972 364.65 250.972 378.748 275.769 378.748 275.769 393.467 250.972 393.467 250.972 432.646 236.252 432.646 236.252 349.93 278.26 349.93"/><path class="f43f3fb6-e85f-4b8a-b294-8392ce4c510d" d="M401.3442,503.4761a25.936,25.936,0,0,1-8.606-11.55l-2.095-5.435,14.098-4.133,1.811,4.529q3,7.4745,11.493,7.474a18.8918,18.8918,0,0,0,4.473-.566,9.5977,9.5977,0,0,0,7.02-6.228,13.208,13.208,0,0,0,.849-6.85q-1.188-7.134-13.983-12.173a50.7084,50.7084,0,0,1-12.343-6.454,20.3971,20.3971,0,0,1-8.435-14.324,20.0088,20.0088,0,0,1,4.133-14.607,20.9154,20.9154,0,0,1,11.606-7.926,28.9351,28.9351,0,0,1,7.529-1.019,23.1031,23.1031,0,0,1,12.343,3.34,19.5545,19.5545,0,0,1,7.982,9.059l2.378,5.491-13.927,4.417-2.038-4.19q-1.6425-3.3975-6.85-3.397a15.3588,15.3588,0,0,0-3.624.453,6.9058,6.9058,0,0,0-3.454,2.434,5.8625,5.8625,0,0,0-1.472,4.36,7.0351,7.0351,0,0,0,3.227,4.642,41.6984,41.6984,0,0,0,8.323,4.02q20.607,8.097,23.099,23.552a26.7453,26.7453,0,0,1-3.171,17.834,23.6387,23.6387,0,0,1-15.682,11.833,32.8613,32.8613,0,0,1-7.983,1.019,26.3878,26.3878,0,0,1-16.701-5.605" transform="translate(-85.4555 -75.3033)"/><path class="f43f3fb6-e85f-4b8a-b294-8392ce4c510d" d="M489.0207,461.1278q7.5855-2.208,12.512-4.02,3.3975-1.19,4.076-2.717.6225-1.5855.114-7.304-.114-1.4145-.17-2.095-.228-3.057-4.473-4.359a14.4191,14.4191,0,0,0-4.246-.68h-7.813Zm-14.72,46.821v-82.716h22.533a25.9334,25.9334,0,0,1,15.286,4.529,18.0631,18.0631,0,0,1,8.096,14.098l.17,1.982q.735,8.4915-.849,13.191-2.832,8.2665-13.022,11.946-6.8505,2.4345-17.494,5.435v31.535Z" transform="translate(-85.4555 -75.3033)"/><path class="f43f3fb6-e85f-4b8a-b294-8392ce4c510d" d="M577.0939,450.2008q-3.7366,10.4745-6.6811,19.589h13.4751q-3.0016-9.1724-6.794-19.589m29.723,57.748h-14.663l-.284-5.0949q-.339-6.3975-3.623-18.3441H566.1108q-3.2279,11.946-3.5669,18.3441l-.227,5.0949h-14.72l.283-5.661q1.02-20.9475,21.911-73.601l1.358-3.397h11.776l1.359,3.34q21.231,52.5975,22.25,73.658Z" transform="translate(-85.4555 -75.3033)"/><path class="f43f3fb6-e85f-4b8a-b294-8392ce4c510d" d="M676.6031,484.34l14.097,4.076-1.8681,5.379q-5.379,15.2865-24.9109,15.286-8.889,0-14.4931-2.774-8.2093-4.077-11.154-14.268-1.4715-5.037-1.302-26.212.1712-19.419.9061-23.213,3.51-18.684,25.647-18.683,21.513,0,25.873,16.815l1.416,5.548-14.3811,2.774-1.359-4.812a6.3949,6.3949,0,0,0-2.2639-3.793q-2.6627-1.869-9.285-1.869-6.6811,0-9.059,2.038-1.473,1.2465-2.151,4.756-.6242,3.396-.6791,21.288,0,18.231.792,21.287a8.33,8.33,0,0,0,2.435,4.416q2.6027,1.983,9.0581,1.982,6.0568,0,8.5489-1.585a7.024,7.024,0,0,0,2.435-3.624Z" transform="translate(-85.4555 -75.3033)"/><polygon class="f43f3fb6-e85f-4b8a-b294-8392ce4c510d" points="678.598 349.93 678.598 364.593 651.309 364.593 651.309 378.748 676.107 378.748 676.107 393.411 651.309 393.411 651.309 417.926 681.089 417.926 681.089 432.646 636.589 432.646 636.589 349.93 678.598 349.93"/><path class="f43f3fb6-e85f-4b8a-b294-8392ce4c510d" d="M431.5842,75.3033l106.887,202.5-44.956,66.38c-20.426-5.4559-61.931-24.9039-61.931-86.07Z" transform="translate(-85.4555 -75.3033)"/><path class="f43f3fb6-e85f-4b8a-b294-8392ce4c510d" d="M421.2343,75.3033l-107.359,202.5,45.013,66.38c20.426-5.4559,62.346-24.9039,62.346-86.07Z" transform="translate(-85.4555 -75.3033)"/></svg>