<svg width="198" height="40" viewBox="0 0 198 40" fill="none" xmlns="http://www.w3.org/2000/svg">
<path fill-rule="evenodd" clip-rule="evenodd" d="M120.797 20.233C119.541 22.077 117.142 22.4807 116.384 22.4807C114.657 22.4807 113.313 21.5878 112.729 20.5204C110.887 21.4715 109.074 22.3644 106.881 22.3644C105.443 22.3644 104.41 21.7619 103.922 20.7893C102.598 21.6548 100.822 22.4163 99.308 22.4804C97.035 22.5707 95.6705 21.5033 94.9685 19.7141C93.0471 20.9619 90.1878 22.0596 87.3504 22.1911C85.424 22.2937 82.8378 22.0474 81.4936 20.5396C81.4486 20.587 81.4005 20.6252 81.3584 20.6574C80.1292 21.6696 78.3456 22.4478 76.3873 22.4478C72.2642 22.4478 72.0317 18.7904 72.2068 16.2456C72.1944 15.7441 72.2116 15.0189 72.3435 14.3356C71.9773 14.383 71.6036 14.4244 71.2269 14.4593C70.4934 14.5267 69.7813 14.6 69.0914 14.6763C68.854 14.7159 68.6102 14.7452 68.3624 14.7633L68.3065 14.7678C68.0792 14.7861 67.8655 14.8033 67.6675 14.8215C67.5823 15.4989 67.526 16.1807 67.5061 16.8674C67.4831 17.5541 67.4719 18.2267 67.4719 18.8844C67.4719 19.7344 67.4937 20.5618 67.5372 21.3644C67.5823 22.1659 67.6458 22.9104 67.7329 23.5985C67.8178 24.2837 67.9098 24.8889 68.0071 25.4118C68.1028 25.9333 68.2166 26.34 68.3462 26.6289C68.4112 26.8048 68.5404 26.9578 68.7342 27.0937C68.7774 27.1519 68.8363 27.2252 68.9141 27.3126C68.9884 27.3981 69.0579 27.49 69.1237 27.5878C69.2739 27.8385 69.3513 28.08 69.3513 28.3126C69.3513 28.6215 69.1976 28.9104 68.8972 29.1826C68.5295 29.4733 68.1746 29.6185 67.8287 29.6185C67.4828 29.6185 67.1928 29.5496 66.954 29.4152C66.5881 29.2211 66.2858 28.9841 66.0484 28.7041C65.8114 28.4226 65.6064 28.0604 65.434 27.6152C65.2609 27.0737 65.1106 26.4637 64.9814 25.7893C64.8515 25.1104 64.7493 24.4041 64.6727 23.67L64.6716 23.6593C64.3475 23.7726 63.8449 23.8674 63.1024 24.0019L62.9691 24.0278L62.9142 24.0384C62.2918 24.1583 61.8127 24.2506 61.3098 24.3993C61.3098 24.3993 61.3628 28.1807 61.3628 29.8611C61.3628 33.603 60.4047 36.5219 58.9238 38.1719C57.5886 39.6611 56.0476 39.967 55.4474 39.9841C52.8623 40.0556 49.4976 37.7148 49.4976 34.1474C49.4976 30.0267 52.6404 25.3733 57.9251 23.2385C57.8136 21.7967 57.6479 20.1989 57.3576 19.3348C54.8236 21.1256 52.4545 22.4496 51.3645 22.4496C50.1364 22.4496 49.2373 21.5993 48.6232 20.4052C46.2334 21.6443 44.3775 21.644 43.0965 21.6437L43.0425 21.6437C41.1876 21.6437 40.3958 20.5196 39.3878 18.6926C35.3301 20.8056 32.6905 22.1022 31.8736 22.1022C31.2656 22.1022 30.8021 21.8515 30.4795 21.4048C29.5744 21.7093 28.7815 21.8667 28.1231 21.8667C26.2122 21.8667 24.5334 21.3589 23.1344 19.573C21.7609 17.8144 20.9128 16.137 20.2785 13.4919C19.72 11.1615 19.6066 9.01926 19.542 6.32185L16.205 19.9126C16.0865 21.407 15.9625 21.4825 15.851 21.5504C15.8353 21.5599 15.8198 21.5694 15.8046 21.5826L15.7877 21.5978C14.6557 22.3807 14.2899 22.4815 14.0988 22.4815C13.8509 22.4815 13.55 22.33 13.5207 21.6115C13.4648 19.6481 13.2725 17.4096 12.9514 14.9552C12.6269 12.5011 12.2971 10.49 11.9666 8.97778C11.6395 7.47444 11.194 6.17333 10.6472 5.10926C10.1323 4.10296 9.60799 3.59222 9.09157 3.59222C8.54098 3.59222 8.05423 3.83111 7.59715 4.32C7.1397 4.8137 6.77051 5.51259 6.50235 6.39963C6.79868 7.87074 7.14872 10.1748 7.55321 13.25C7.95996 16.3663 8.16765 18.9293 8.16765 20.8663C8.16765 21.4689 7.97724 21.9504 7.60316 22.2993C7.23097 22.6448 6.85727 22.8207 6.48996 22.8207C6.08208 22.8207 5.70988 22.4341 5.35797 21.6404C5.03723 20.9219 4.76418 19.8619 4.5486 18.4948C4.33603 17.1341 4.22786 15.9152 4.22786 14.8726C4.22786 13.8419 4.26542 12.6733 4.33753 11.403C3.97059 8.75741 3.4046 6.39074 2.6542 4.36741C2.40218 3.63333 2.06867 2.98 1.66568 2.4237C1.2871 1.90074 0.910396 1.62074 0.54759 1.58704C0.0529562 1.51074 0 1.2063 0 1.07778C0 0.727778 0.400364 0.487778 1.34006 0.275185C2.15243 0.09 2.76837 0 3.22244 0C3.74186 0 4.1918 0.402222 4.56062 1.19111C4.91554 1.96815 5.28623 2.8963 5.66594 3.95111L5.74308 4.16681C5.88743 4.57037 5.9896 4.85602 6.05992 5.05963C6.6323 3.95259 7.30045 3.04889 8.05047 2.37148C8.91918 1.58704 9.87427 1.18815 10.8853 1.18815C11.6154 1.18815 12.2701 1.53667 12.8372 2.22481C13.3803 2.87926 13.8268 3.70963 14.1664 4.68815C14.6662 6.15405 14.8351 7.91976 15.0669 10.344L15.0669 10.3442C15.1284 10.9873 15.1943 11.6768 15.2721 12.4193L15.5695 16.0374C15.6919 15.5419 15.8662 14.8233 16.1122 13.7804C16.638 11.5448 17.0812 9.70815 17.435 8.32C18.5602 3.83519 19.2599 2.01667 20.5256 1.58556C22.0761 1.05732 22.0519 2.50795 22.0405 3.18943C22.0396 3.24187 22.0388 3.28977 22.0388 3.33185C22.0388 3.92037 22.0591 4.57481 22.0948 5.27222C22.1308 5.96963 22.2202 6.90037 22.3584 8.04444C22.4963 9.18333 22.6807 10.2815 22.9101 11.3059C23.1385 12.3259 23.4746 13.3963 23.9043 14.4852C24.3324 15.5663 24.8365 16.3126 25.4096 17.0967C25.976 17.8704 26.6967 18.5174 27.5605 19.0204C28.2835 19.4426 29.091 19.687 29.9627 19.7515C29.9488 19.5893 29.9402 19.4226 29.9402 19.247C29.9402 17.8859 31.9018 15.207 34.8963 13.383C35.552 12.99 37.9212 11.7711 39.4193 11.7711C41.1917 11.7711 42.1982 12.4304 42.1982 13.6993C42.1982 14.1626 41.7532 14.9441 40.5359 14.8081C40.2097 14.7712 39.9617 14.7253 39.7158 14.6797C39.1871 14.5817 38.6686 14.4856 37.4036 14.4856C35.3601 14.4856 33.4541 17.2074 33.4541 18.03C33.4541 18.7456 33.8075 19.0681 34.544 19.0681C34.9767 19.0681 35.4144 18.774 36.15 18.2796C36.8484 17.8102 37.8153 17.1604 39.3014 16.4104C39.7634 16.1611 40.1187 15.9807 40.4443 15.9807C41.1099 15.9807 41.4847 16.6812 41.9134 17.4826C42.4865 18.5538 43.156 19.8052 44.7454 19.8052C45.8541 19.8052 47.0653 19.2637 47.9986 18.7578C47.7128 17.7119 47.5784 16.5926 47.5784 15.6141C47.5784 14.7178 48.5597 14.0389 49.9757 14.0389C50.1402 14.0389 50.3306 14.0389 50.5214 14.0726C50.7662 14.1459 51.1741 15.3619 51.5557 17.8696C51.7476 19.0885 52.4815 19.5181 53.2988 19.5181C54.8433 19.5181 56.2024 17.4794 57.1761 16.0188C57.3706 15.7271 57.5496 15.4585 57.7118 15.2337C58.6143 13.9859 59.6719 13.1937 60.2454 13.1937C60.8753 13.1937 61.0018 16.9811 61.1746 22.2674C62.0302 22.0674 63.8074 21.8163 64.4259 21.8163H64.536C64.5334 21.7689 64.5305 21.7219 64.5277 21.675L64.5275 21.6715C64.5222 21.5852 64.5169 21.4988 64.5131 21.4096C64.4804 20.6374 64.465 19.873 64.465 19.1174C64.465 18.3837 64.4752 17.677 64.4958 16.9996C64.5191 16.3237 64.5612 15.6844 64.6261 15.0852C64.1721 15.1415 63.6973 15.1722 63.2027 15.1722H63.1362C62.663 15.1722 62.3111 15.0467 62.0846 14.7944C61.8585 14.5452 61.747 14.253 61.747 13.9241V13.8659C61.747 13.5752 61.8585 13.297 62.0846 13.0248C62.2499 12.8275 62.482 12.8164 62.7794 12.8022C62.8894 12.7969 63.0084 12.7913 63.1362 12.7756H63.1035C63.6012 12.7374 63.9467 12.707 64.1409 12.6885C64.2479 12.6885 64.3734 12.6841 64.5131 12.6748C64.652 12.6641 64.7888 12.6504 64.9176 12.6304C65.0896 11.5278 65.5797 9.71296 65.893 8.65C66.2043 7.58556 66.6096 6.59926 67.1072 5.68963C67.4065 5.18815 67.716 4.72333 68.0296 4.29815C68.3413 3.87296 68.6809 3.48481 69.0485 3.13741C69.2637 2.94333 69.5383 2.7263 69.8733 2.48444C70.2079 2.24111 70.585 2.01481 71.0068 1.80222C71.4271 1.59 71.8676 1.41074 72.3326 1.26556C72.796 1.12037 73.0289 1.04852 73.525 1.04852C74.043 1.04852 74.5019 1.12667 74.9004 1.27963C75.2985 1.43556 75.6403 1.63889 75.9193 1.88963C76.2014 2.14037 76.4215 2.4263 76.5841 2.74593C76.746 3.0637 76.8372 3.37889 76.8575 3.68926V3.65926C76.8808 3.75704 76.8913 3.85148 76.8913 3.94963V4.18185C76.8913 4.43259 76.8808 4.60704 76.8575 4.70333V4.73259C76.7509 5.06296 76.5552 5.31852 76.2761 5.50185C75.9956 5.68518 75.7053 5.77704 75.4029 5.77704C75.3594 5.77704 75.327 5.78185 75.3053 5.79074C75.2835 5.80148 75.2508 5.80593 75.2076 5.80593C74.9064 5.80593 74.6367 5.72333 74.3994 5.56C74.1609 5.3963 74.0118 4.9863 73.9468 4.6563L73.9776 4.68704C73.9141 4.57074 73.8815 4.45444 73.8815 4.33852C73.8815 4.26185 73.8709 4.19296 73.851 4.13519C73.8278 4.11704 73.8169 4.09704 73.8169 4.07704V4.10778C73.7083 3.81593 73.5363 3.67037 73.2989 3.67037H73.234C72.9508 3.69059 72.6334 3.8299 72.2416 4.00185L72.1673 4.03444C69.3003 5.29233 68.3596 10.6064 68.1032 12.0549C68.084 12.1631 68.0687 12.2497 68.0566 12.3115C68.4451 12.272 69.5244 12.104 70.5985 11.9369L70.5986 11.9368L70.5987 11.9368C71.6126 11.779 72.6218 11.6219 73.0405 11.5744C73.0837 11.5744 73.1273 11.57 73.1709 11.5607C73.2126 11.5519 73.2576 11.5456 73.2993 11.5456C73.7305 11.5456 74.0655 11.6726 74.3021 11.923C74.5398 12.1737 74.6593 12.4644 74.6593 12.793C74.6593 12.8165 74.6565 12.8396 74.6537 12.8628L74.6536 12.8631C74.6517 12.8788 74.6498 12.8946 74.6488 12.9107C74.6498 12.9158 74.651 12.9208 74.6523 12.9258L74.6538 12.9316C74.6577 12.9472 74.6616 12.9627 74.6627 12.9796C74.6627 13.5145 74.7464 14.4076 74.8269 15.2673L74.8271 15.2687C74.8634 15.657 74.8992 16.0385 74.9263 16.377C75.0442 18.0896 75.8329 20.3741 78.3463 20.3741C79.2705 20.3741 80.1912 20.0901 80.9325 19.8615L81.0106 19.8374C80.7504 19.3281 80.5979 18.7181 80.5979 17.9841C80.6272 15.2441 84.9831 11.467 87.8488 11.3233C89.5437 11.2363 90.7418 12.0433 90.5683 13.6015C90.2283 15.8857 86.6407 17.3359 84.4757 18.2111L84.2541 18.3007C84.7784 19.7426 86.2999 20.4337 89.1929 20.2333C91.1403 20.0819 93.0865 19.2867 94.6358 18.6078C94.4529 17.7822 94.3688 16.8537 94.3688 15.8493C94.3822 14.8443 94.3654 13.8277 94.3484 12.8021V12.8018C94.3279 11.5616 94.3072 10.3082 94.3395 9.0463C94.3688 7.05667 94.5149 5.00963 94.9242 3.02C95.0407 2.38556 96.152 1.29074 96.9122 1.29074C97.1758 1.29074 97.4969 1.57815 97.554 1.72333C97.6423 1.95259 97.6734 2.21259 97.6734 2.81815V2.81838C97.6734 3.13648 97.6734 3.51087 97.6423 4.05815C97.605 5.34959 97.4947 6.9295 97.3821 8.54329L97.3821 8.5438L97.382 8.54399C97.2282 10.7477 97.0701 13.0146 97.0872 14.6963C97.1169 17.5222 97.6423 20.3478 101.444 20.1459C102.342 20.0941 102.964 19.9148 103.618 19.6244L103.617 19.6132L103.617 19.6128C103.613 19.5589 103.609 19.5072 103.608 19.453C103.608 15.9652 107.495 12.4467 111.793 11.7267C111.793 9.0463 111.968 6.19148 112.378 3.48148C112.641 1.86704 114.397 1.00148 114.864 0.944815C115.799 0.79963 116.033 1.34852 115.916 1.72333C115.052 5.59037 114.657 16.7974 115.857 19.4826C116.617 21.097 119.073 20.0863 120.711 19.3096C121.235 19.0496 121.031 19.9152 120.797 20.233ZM111.842 14.3653V14.3652L111.841 14.3638C111.826 13.9389 111.811 13.5355 111.792 13.1685C108.753 13.2267 107.262 15.7633 107.234 18.0115C107.262 19.2807 107.553 20.233 109.308 20.233C110.126 20.233 111.355 19.7422 112.29 19.2222C111.968 17.8157 111.899 15.9425 111.842 14.3653ZM84.0768 16.6567C85.714 16.4548 87.7023 15.7056 87.7023 14.0633C87.7023 13.6289 87.4976 13.2541 87 13.3126C85.9758 13.3996 84.3683 14.9563 84.1636 15.8496C84.1046 16.1382 84.0768 16.3967 84.0768 16.6567ZM58.0812 25.9806C58.0852 26.0705 58.0893 26.1653 58.0934 26.2641L58.0962 26.3299V26.33V26.33C58.2191 29.1589 58.5153 35.9797 56.3894 37.7341C56.1051 37.9678 55.7986 38.0826 55.4482 38.0826C54.958 38.0826 52.5145 37.8411 52.5145 33.0748C52.5093 33.0241 52.3016 28.6619 58.0682 25.6693C58.0717 25.7642 58.0763 25.8686 58.0812 25.9806ZM74.6927 10.7985C75.3071 10.7985 75.8014 10.1759 75.8014 9.65778C75.8322 8.87815 74.9548 7.52926 73.8447 7.52926C73.0834 7.52926 72.1778 8.04778 72.1778 8.64407C72.1778 9.55222 73.5517 10.7985 74.6927 10.7985Z" fill="#101010"/>
<path d="M133.343 15.08H136.319C136.871 15.08 137.363 15.188 137.795 15.404C138.227 15.612 138.563 15.912 138.803 16.304C139.051 16.688 139.175 17.132 139.175 17.636C139.175 18.14 139.051 18.588 138.803 18.98C138.563 19.364 138.227 19.664 137.795 19.88C137.363 20.096 136.871 20.204 136.319 20.204H134.963V23H133.343V15.08ZM136.319 18.788C136.695 18.788 136.987 18.684 137.195 18.476C137.411 18.26 137.519 17.98 137.519 17.636C137.519 17.3 137.411 17.028 137.195 16.82C136.979 16.612 136.687 16.508 136.319 16.508H134.963V18.788H136.319ZM145.288 19.688C145.288 19.976 145.252 20.272 145.18 20.576H141.016C141.112 20.952 141.304 21.244 141.592 21.452C141.888 21.652 142.252 21.752 142.684 21.752C143.268 21.752 143.82 21.552 144.34 21.152L145.012 22.256C144.308 22.848 143.516 23.144 142.636 23.144C142.02 23.144 141.464 23.008 140.968 22.736C140.472 22.464 140.084 22.092 139.804 21.62C139.524 21.14 139.384 20.612 139.384 20.036C139.384 19.46 139.52 18.936 139.792 18.464C140.064 17.984 140.436 17.608 140.908 17.336C141.388 17.064 141.916 16.928 142.492 16.928C143.036 16.928 143.52 17.052 143.944 17.3C144.368 17.54 144.696 17.872 144.928 18.296C145.168 18.712 145.288 19.176 145.288 19.688ZM142.432 18.236C142.088 18.236 141.788 18.344 141.532 18.56C141.276 18.776 141.104 19.068 141.016 19.436H143.716C143.708 19.068 143.58 18.776 143.332 18.56C143.084 18.344 142.784 18.236 142.432 18.236ZM148.884 23.132C148.3 23.132 147.764 22.996 147.276 22.724C146.796 22.444 146.416 22.068 146.136 21.596C145.856 21.116 145.716 20.592 145.716 20.024C145.716 19.456 145.856 18.936 146.136 18.464C146.416 17.984 146.8 17.608 147.288 17.336C147.776 17.064 148.312 16.928 148.896 16.928C149.48 16.928 150.016 17.068 150.504 17.348C150.992 17.62 151.376 17.992 151.656 18.464C151.944 18.936 152.088 19.456 152.088 20.024C152.088 20.592 151.944 21.116 151.656 21.596C151.376 22.068 150.988 22.444 150.492 22.724C150.004 22.996 149.468 23.132 148.884 23.132ZM148.896 21.644C149.336 21.644 149.7 21.492 149.988 21.188C150.284 20.884 150.432 20.5 150.432 20.036C150.432 19.572 150.284 19.184 149.988 18.872C149.7 18.56 149.336 18.404 148.896 18.404C148.448 18.404 148.08 18.56 147.792 18.872C147.504 19.176 147.36 19.564 147.36 20.036C147.36 20.5 147.504 20.884 147.792 21.188C148.08 21.492 148.448 21.644 148.896 21.644ZM156.248 16.928C156.8 16.928 157.292 17.064 157.724 17.336C158.164 17.6 158.508 17.968 158.756 18.44C159.004 18.904 159.128 19.432 159.128 20.024C159.128 20.616 159.004 21.148 158.756 21.62C158.508 22.092 158.164 22.464 157.724 22.736C157.292 23.008 156.8 23.144 156.248 23.144C155.888 23.144 155.556 23.084 155.252 22.964C154.948 22.836 154.688 22.656 154.472 22.424V25.16H152.852V17.06H154.34V17.804C154.54 17.524 154.804 17.308 155.132 17.156C155.468 17.004 155.84 16.928 156.248 16.928ZM155.948 21.668C156.38 21.668 156.744 21.52 157.04 21.224C157.336 20.92 157.484 20.524 157.484 20.036C157.484 19.54 157.336 19.144 157.04 18.848C156.752 18.544 156.388 18.392 155.948 18.392C155.54 18.392 155.188 18.532 154.892 18.812C154.596 19.084 154.448 19.488 154.448 20.024C154.448 20.552 154.592 20.96 154.88 21.248C155.176 21.528 155.532 21.668 155.948 21.668ZM159.899 14H161.519V23H159.899V14ZM168.19 19.688C168.19 19.976 168.154 20.272 168.082 20.576H163.918C164.014 20.952 164.206 21.244 164.494 21.452C164.79 21.652 165.154 21.752 165.586 21.752C166.17 21.752 166.722 21.552 167.242 21.152L167.914 22.256C167.21 22.848 166.418 23.144 165.538 23.144C164.922 23.144 164.366 23.008 163.87 22.736C163.374 22.464 162.986 22.092 162.706 21.62C162.426 21.14 162.286 20.612 162.286 20.036C162.286 19.46 162.422 18.936 162.694 18.464C162.966 17.984 163.338 17.608 163.81 17.336C164.29 17.064 164.818 16.928 165.394 16.928C165.938 16.928 166.422 17.052 166.846 17.3C167.27 17.54 167.598 17.872 167.83 18.296C168.07 18.712 168.19 19.176 168.19 19.688ZM165.334 18.236C164.99 18.236 164.69 18.344 164.434 18.56C164.178 18.776 164.006 19.068 163.918 19.436H166.618C166.61 19.068 166.482 18.776 166.234 18.56C165.986 18.344 165.686 18.236 165.334 18.236ZM171.925 15.08H177.133V16.544H173.545V18.524H176.485V19.988H173.545V23H171.925V15.08ZM177.739 17.06H179.359V23H177.739V17.06ZM178.543 15.896C178.255 15.896 178.011 15.8 177.811 15.608C177.611 15.416 177.511 15.18 177.511 14.9C177.511 14.612 177.611 14.372 177.811 14.18C178.011 13.988 178.255 13.892 178.543 13.892C178.831 13.892 179.075 13.988 179.275 14.18C179.483 14.372 179.587 14.612 179.587 14.9C179.587 15.18 179.483 15.416 179.275 15.608C179.075 15.8 178.831 15.896 178.543 15.896ZM183.582 16.988C183.782 16.988 183.958 17.012 184.11 17.06V18.488H183.678C183.19 18.488 182.802 18.62 182.514 18.884C182.226 19.14 182.082 19.524 182.082 20.036V23H180.462V17.06H181.95V17.768C182.15 17.52 182.39 17.328 182.67 17.192C182.95 17.056 183.254 16.988 183.582 16.988ZM186.534 23.144C186.014 23.144 185.542 23.044 185.118 22.844C184.694 22.636 184.346 22.352 184.074 21.992L184.89 21.008C185.41 21.544 185.966 21.812 186.558 21.812C186.774 21.812 186.954 21.772 187.098 21.692C187.242 21.604 187.314 21.48 187.314 21.32C187.314 21.192 187.266 21.096 187.17 21.032C187.082 20.96 186.926 20.876 186.702 20.78L186.066 20.516C185.522 20.292 185.114 20.044 184.842 19.772C184.578 19.5 184.446 19.144 184.446 18.704C184.446 18.144 184.646 17.708 185.046 17.396C185.454 17.084 185.982 16.928 186.63 16.928C187.518 16.928 188.23 17.224 188.766 17.816L187.95 18.812C187.55 18.436 187.106 18.248 186.618 18.248C186.418 18.248 186.262 18.284 186.15 18.356C186.038 18.428 185.982 18.532 185.982 18.668C185.982 18.78 186.026 18.872 186.114 18.944C186.21 19.016 186.374 19.1 186.606 19.196L187.182 19.436C187.758 19.668 188.178 19.92 188.442 20.192C188.714 20.456 188.85 20.808 188.85 21.248C188.85 21.84 188.63 22.304 188.19 22.64C187.758 22.976 187.206 23.144 186.534 23.144ZM192.623 21.692C192.719 21.692 192.975 21.676 193.391 21.644V23C193.007 23.096 192.635 23.144 192.275 23.144C191.523 23.144 190.939 22.96 190.523 22.592C190.107 22.216 189.899 21.656 189.899 20.912V18.428H188.963V17.06H189.899V15.56H191.519V17.06H193.199V18.428H191.519V20.768C191.519 21.104 191.607 21.344 191.783 21.488C191.959 21.624 192.239 21.692 192.623 21.692ZM194.955 23.144C194.635 23.144 194.367 23.04 194.151 22.832C193.935 22.616 193.827 22.348 193.827 22.028C193.827 21.716 193.935 21.452 194.151 21.236C194.367 21.02 194.635 20.912 194.955 20.912C195.267 20.912 195.527 21.02 195.735 21.236C195.951 21.452 196.059 21.716 196.059 22.028C196.059 22.348 195.955 22.616 195.747 22.832C195.539 23.04 195.275 23.144 194.955 23.144Z" fill="#131415"/>
</svg>
